<?xml version="1.0" encoding="UTF-8" standalone="no"?>
<svg
   xmlns:dc="http://purl.org/dc/elements/1.1/"
   xmlns:cc="http://creativecommons.org/ns#"
   xmlns:rdf="http://www.w3.org/1999/02/22-rdf-syntax-ns#"
   xmlns:svg="http://www.w3.org/2000/svg"
   xmlns="http://www.w3.org/2000/svg"
   height="113"
   width="113.70361"
   xml:space="preserve"
   viewBox="0 0 106.59713 105.9375"
   y="0px"
   x="0px"
   id="Lager_1"
   version="1.1"><metadata
     id="metadata31"><rdf:RDF><cc:Work
         rdf:about=""><dc:format>image/svg+xml</dc:format><dc:type
           rdf:resource="http://purl.org/dc/dcmitype/StillImage" /><dc:title></dc:title></cc:Work></rdf:RDF></metadata><defs
     id="defs29" /><style
     id="style3"
     type="text/css">
	.st0{fill:#717171;}
	.st1{opacity:0.85;fill:#FFA400;enable-background:new    ;}
	.st2{opacity:0.77;fill:#009A44;enable-background:new    ;}
</style><ellipse
     style="opacity:0.85;fill:#ffa400;enable-background:new"
     id="ellipse15"
     ry="16.6"
     rx="16"
     cy="5.7466164"
     cx="42.375832"
     class="st1" /><path
     style="opacity:0.76999996;fill:#009a44;enable-background:new"
     id="path21"
     d="m 3.775828,-11.953388 c 0,0 10.9,30.5 37.4,49.1 26.499997,18.6 34.199997,27.3 54.500002,46.499995 14.19999,13.400005 11.79999,32.199993 7.99999,46.899993 -3.79999,14.7 2.8,-16 -20.399995,-34.599988 -6.4,-5.1 -29.2,-23.3 -51.699997,-42.7 -19.9,-17.3 -36.7,-40 -27.8,-65.2 z"
     class="st2" /><path
     style="opacity:0.85;fill:#ffa400;enable-background:new"
     id="path23"
     d="m 85.975825,-15.053388 c 0,0 15.799995,31.9 -6.3,62.5 -24.5,33.899995 -45.899997,54.399998 -62.099997,72.899998 -11.3000005,12.89999 -14.9,37.79999 -10.2000005,46.4 4.7000005,8.6 -20.0999995,-31.50001 1.8,-60.7 C 25.375828,84.346607 52.775828,52.946612 69.175825,32.546612 c 13.2,-16.5 22.4,-22.099999 16.8,-47.6 z"
     class="st1" /></svg>